<?xml version="1.0" standalone="no"?>
<!DOCTYPE svg PUBLIC "-//W3C//DTD SVG 20010904//EN"
 "http://www.w3.org/TR/2001/REC-SVG-20010904/DTD/svg10.dtd">
<svg version="1.0" xmlns="http://www.w3.org/2000/svg"
 width="32.000000pt" height="32.000000pt" viewBox="0 0 32.000000 32.000000"
 preserveAspectRatio="xMidYMid meet">
<metadata>
Created by potrace 1.10, written by Peter Selinger 2001-2011
</metadata>
<g transform="translate(0.000000,32.000000) scale(0.100000,-0.100000)"
fill="#000000" stroke="none">
<path d="M185 230 l-59 -60 -28 27 -28 27 -37 -37 -38 -37 60 -60 c33 -33 64
-60 70 -60 6 0 53 43 105 95 l93 96 -33 34 c-19 19 -37 35 -40 35 -3 0 -32
-27 -65 -60z m89 11 c16 -17 13 -22 -64 -97 -45 -43 -85 -80 -88 -82 -4 -1
-28 18 -52 43 l-44 45 22 22 22 22 28 -27 28 -27 59 60 c33 33 62 60 66 60 3
0 13 -8 23 -19z"/>
</g>
</svg>
